:SAMPLES-PER-SECOND 30
:FRAME-RANGE 1-4244
:FULLY-SPECIFIED
:DEGREES
133
root  -5.46523 38.1622 -7.80955 177.798 7.02002 174.738
RightUpLeg  7.50111 -6.30361 -21.2437
RightLeg  33.7443 -9.24015 -6.82592
RightFoot  -8.51747 -0.636825 23.1646
RightToes  -3.31784e-009 0 -3.6325e-017
Spine  12.5615 2.75213 1.84772
Spine1  -2.16902 4.5843 -10.9629
HEad  1.70778 11.8766 -5.24596
LeftShoulder1  1.06987 0.691587 -31.9782
LeftArm  15.7278 27.0246 -16.7555
LeftForeArm  -2.22417 -1.49575 -19.1118
LeftHand  0.222461 1.63663 -7.27693
RightShoulder  9.83979 15.0249 46.4446
RightArm  18.082 7.04896 17.3175
RightForeArm  4.3916 31.0301 6.55799
RightHand  0.247652 4.4875 2.62079
LeftUpLeg  -18.6436 12.0513 4.48692
LeftLeg  14.3933 -0.416698 -1.0319
LeftFoot  0.482379 2.03206 -19.4896
LeftToes  1.0277e-010 -6.71454e-011 3.04227e-011
134
root  -4.68323 37.7787 -6.41795 178.285 7.61531 174.161
RightUpLeg  10.599 -3.58312 -20.6105
RightLeg  25.0591 -4.87649 -2.70346
RightFoot  -18.0663 1.70331 30.4164
RightToes  -3.31784e-009 0 -3.6325e-017
Spine  12.6071 3.26558 2.72121
Spine1  -2.48192 5.27669 -11.6287
HEad  0.792889 11.5132 -6.0078
LeftShoulder1  0.909486 1.05759 -31.105
LeftArm  11.014 29.2175 -16.2842
LeftForeArm  -0.277127 -1.45688 -18.6377
LeftHand  0.275634 1.25334 -8.03476
RightShoulder  11.0049 17.2959 46.2381
RightArm  15.666 10.219 17.4163
RightForeArm  5.82775 33.015 6.99089
RightHand  0.219299 4.4795 2.29043
LeftUpLeg  -20.9194 11.7718 5.22644
LeftLeg  13.6438 0.614312 -0.759951
LeftFoot  1.62624 2.34689 -20.5444
LeftToes  1.0277e-010 -6.71454e-011 3.04227e-011
135
root  -3.97218 37.6302 -4.97234 179.119 7.54817 174.669
RightUpLeg  10.4239 -3.23311 -18.3782
RightLeg  21.0679 -3.44364 -1.67749
RightFoot  -23.3331 2.64632 26.2851
RightToes  -3.31784e-009 0 -3.6325e-017
Spine  13.2713 2.89744 5.28644
Spine1  -3.13449 5.32048 -12.3098
HEad  -1.17214 11.4046 -7.41332
LeftShoulder1  0.764319 1.45694 -31.261
LeftArm  3.89972 29.3226 -16.2247
LeftForeArm  1.78635 -0.364142 -18.1271
LeftHand  0.304842 1.04158 -8.38998
RightShoulder  12.1358 19.6048 45.8457
RightArm  14.4724 13.7475 17.901
RightForeArm  6.46853 33.7576 7.15238
RightHand  0.199188 4.51427 2.0447
LeftUpLeg  -22.5759 10.6626 6.78622
LeftLeg  11.0016 1.40102 -0.816619
LeftFoot  2.4632 2.24179 -18.5044
LeftToes  1.0277e-010 -6.71454e-011 3.04227e-011
136
root  -3.32319 37.6463 -3.56114 -179.866 6.72505 175.428
RightUpLeg  8.72082 -4.80038 -15.3722
RightLeg  19.3964 -6.10491 -2.59453
RightFoot  -26.2286 2.7538 22.1966
RightToes  -3.31784e-009 0 -3.6325e-017
Spine  13.5505 2.27746 7.32063
Spine1  -2.9482 4.9456 -11.9986
HEad  -3.55847 11.2191 -8.89917
LeftShoulder1  0.75241 1.52949 -32.0306
LeftArm  -3.03277 28.2198 -17.8371
LeftForeArm  3.93512 1.00564 -17.4955
LeftHand  0.230973 1.63651 -7.54356
RightShoulder  12.9558 21.6897 44.8108
RightArm  14.1781 16.6278 18.6617
RightForeArm  7.12287 33.709 7.10121
RightHand  0.182702 4.53784 1.84579
LeftUpLeg  -23.4865 8.8301 8.31984
LeftLeg  6.84773 1.56382 -0.975003
LeftFoot  1.5112 1.81033 -16.0668
LeftToes  1.0277e-010 -6.71454e-011 3.04227e-011
137
root  -2.78427 37.8312 -2.28575 -178.924 5.76151 176.05
RightUpLeg  5.20576 -5.43631 -13.0648
RightLeg  21.3513 -6.68114 -3.0869
RightFoot  -26.3577 2.69521 21.5844
RightToes  -3.31784e-009 0 -3.6325e-017
Spine  13.2797 1.78843 8.11161
Spine1  -1.96228 4.40758 -10.8035
HEad  -6.08342 11.2906 -10.0141
LeftShoulder1  0.878985 1.25073 -32.9354
LeftArm  -7.60814 26.8373 -21.1074
LeftForeArm  5.4127 1.48918 -16.9166
LeftHand  0.165982 1.99497 -6.17211
RightShoulder  13.5545 23.1938 44.1755
RightArm  15.4372 18.5065 18.9463
RightForeArm  7.18323 33.4363 7.02464
RightHand  0.201411 4.8011 1.99427
LeftUpLeg  -23.7629 8.24227 8.98997
LeftLeg  2.82338 0.838268 -1.32073
LeftFoot  -0.412334 1.51149 -15.6936
LeftToes  1.0277e-010 -6.71454e-011 3.04227e-011
138
root  -2.30899 38.1838 -1.16681 -178.226 4.51314 176.031
RightUpLeg  2.39017 -8.35662 -12.307
RightLeg  22.4054 -5.41303 -2.66457
RightFoot  -24.7583 2.22816 20.1911
RightToes  -3.31784e-009 0 -3.6325e-017
Spine  13.2183 1.46077 7.16101
Spine1  -1.1648 3.76158 -9.11902
HEad  -7.22504 11.4253 -10.1767
LeftShoulder1  1.05166 0.832668 -33.2986
LeftArm  -6.93995 24.9494 -25.3566
LeftForeArm  5.31948 0.883925 -17.0133
LeftHand  0.156543 1.86778 -5.60239
RightShoulder  13.7983 23.6868 44.1412
RightArm  18.2107 18.809 19.0106
RightForeArm  6.89312 32.7828 6.86835
RightHand  0.206329 4.88073 2.0293
LeftUpLeg  -24.5395 8.60948 8.39918
LeftLeg  2.56554 2.31952 -2.19295
LeftFoot  -1.76293 1.51916 -17.8825
LeftToes  1.0277e-010 -6.71454e-011 3.04227e-011
139
root  -1.92734 38.6776 -0.296802 -177.96 3.14648 175.509
RightUpLeg  1.98902 -10.5129 -11.9377
RightLeg  20.0675 -5.75924 -2.54038
RightFoot  -22.1482 1.61604 18.5361
RightToes  -3.31784e-009 0 -3.6325e-017
Spine  13.3833 1.39742 5.77896
Spine1  -1.25626 3.18572 -7.10297
HEad  -7.40995 10.8677 -8.9209
LeftShoulder1  1.16956 0.4851 -32.6806
LeftArm  -2.79325 22.5068 -29.1881
LeftForeArm  8.29307 -0.760973 -17.141
LeftHand  0.279322 0.599562 -6.91867
RightShoulder  13.6541 22.9799 44.9015
RightArm  21.1154 17.5324 19.1192
RightForeArm  6.41659 31.8917 6.66393
RightHand  0.223577 4.85332 2.23162
LeftUpLeg  -23.6412 8.40808 7.22712
LeftLeg  2.83729 3.99951 -2.84964
LeftFoot  -2.19685 1.5415 -18.9621
LeftToes  1.0277e-010 -6.71454e-011 3.04227e-011
140
root  -1.65581 39.104 0.440373 -177.352 2.24214 175.293
RightUpLeg  1.80007 -12.5281 -11.552
RightLeg  16.8517 -5.63175 -1.93592
RightFoot  -19.6215 1.12506 17.2731
RightToes  -3.31784e-009 0 -3.6325e-017
Spine  13.0774 1.34879 6.0365
Spine1  -1.33296 3.10125 -6.94156
HEad  -7.49151 9.90708 -7.74302
LeftShoulder1  1.20027 0.389074 -32.474
LeftArm  2.67116 19.8475 -31.1804
LeftForeArm  11.6997 -4.50358 -16.4614
LeftHand  0.536256 -1.55606 -8.84255
RightShoulder  13.21 21.5377 46.0218
RightArm  24.2111 15.3474 19.2233
RightForeArm  5.184 30.6647 6.42171
RightHand  0.30839 5.31037 3.0269
LeftUpLeg  -23.2422 8.98623 5.88693
LeftLeg  5.44268 4.62297 -2.55632
LeftFoot  -2.24136 1.44951 -17.9214
LeftToes  1.0277e-010 -6.71454e-011 3.04227e-011
141
root  -1.48043 39.4295 1.07411 -176.812 1.87009 175.253
RightUpLeg  1.62541 -12.9929 -11.1979
RightLeg  13.9368 -6.29021 -1.03536
RightFoot  -17.3552 0.746241 16.3582
RightToes  -3.31784e-009 0 -3.6325e-017
Spine  12.7692 1.32966 6.91937
Spine1  -1.43615 3.2321 -7.37341
HEad  -7.57539 9.09451 -7.51811
LeftShoulder1  1.20822 0.390682 -32.7486
LeftArm  10.5298 18.3756 -32.1344
LeftForeArm  7.13789 -11.2297 -13.8925
LeftHand  0.60365 -2.00176 -9.32181
RightShoulder  12.5845 19.9379 46.8932
RightArm  28.2629 12.6038 19.6427
RightForeArm  2.04645 28.6899 6.10782
RightHand  0.273475 5.18111 2.68928
LeftUpLeg  -22.9061 11.6862 3.97237
LeftLeg  9.64671 2.30065 -1.59801
LeftFoot  -2.52773 1.31932 -16.8216
LeftToes  1.0277e-010 -6.71454e-011 3.04227e-011
142
root  -1.3525 39.6199 1.64338 -176.399 1.69745 175.286
RightUpLeg  1.02129 -12.9636 -10.9608
RightLeg  12.3812 -6.74187 -0.115494
RightFoot  -15.7886 0.488797 15.2785
RightToes  -3.31784e-009 0 -3.6325e-017
Spine  12.5667 1.32655 7.3717
Spine1  -1.56531 3.25566 -7.28443
HEad  -7.78487 8.67018 -7.82089
LeftShoulder1  1.19729 0.429037 -32.8759
LeftArm  18.156 18.1157 -32.8127
LeftForeArm  -1.61244 -18.2872 -8.84665
LeftHand  0.603204 -2.56451 -8.60608
RightShoulder  11.9216 18.4098 47.562
RightArm  34.0909 9.88434 20.0914
RightForeArm  -2.26796 25.9014 5.67731
RightHand  0.298624 5.40817 2.88885
LeftUpLeg  -22.5039 15.0122 2.12704
LeftLeg  14.5578 -1.44298 -0.568541
LeftFoot  -3.0632 1.23122 -16.6618
LeftToes  1.0277e-010 -6.71454e-011 3.04227e-011
